# xmcd
#
# Track frame offsets: 
#        150
#        12841
#        25569
#        36997
#        50532
#        63176
#        76653
#        88471
#        101568
#        115236
#        127589
#        139179
#        152408
#        165808
#        178204
#        191332
#        203559
#        216639
#        228990
#        240866
#        253232
#        265166
#        277177
#        288795
#        301219
#
# Disc length: 4180 seconds
#
# Revision: 1
# Processed by: cddbd v1.5.2PL0 Copyright (c) Steve Scherf et al.
# Submitted via: ExactAudioCopy v1.0b3
#
DISCID=4a105219
DTITLE=Champion jack Dupree - 1940-1941 (Chicago )
DYEAR=2009
DGENRE=Blues
TTITLE0=Gamblin' Man Blues
TTITLE1=Warehouse Man Blues
TTITLE2=Chaing Gang Blues
TTITLE3=New Low Down Dog
TTITLE4=Black Woman Swing
TTITLE5=Cabbage Greens No 1
TTITLE6=Cabbage Greens No 2
TTITLE7=Angola Blues
TTITLE8=My Cabin Inn
TTITLE9=Bad Health Blues
TTITLE10=That's All Right
TTITLE11=Gibing Blues
TTITLE12=Dupree Shake Dance
TTITLE13=My Baby's Gone
TTITLE14=Weed Head Woman
TTITLE15=Junker Blues
TTITLE16=Oh, Red
TTITLE17=All Alone Blues
TTITLE18=Big Time Mama
TTITLE19=Shady Lane
TTITLE20=Hurry Down Sunshine
TTITLE21=Jackie P. Blues
TTITLE22=Heavy Heart Blues
TTITLE23=Morning Tea
TTITLE24=Black Cow Blues
EXTD=YEAR: 2009
EXTT0=
EXTT1=
EXTT2=
EXTT3=
EXTT4=
EXTT5=
EXTT6=
EXTT7=
EXTT8=
EXTT9=
EXTT10=
EXTT11=
EXTT12=
EXTT13=
EXTT14=
EXTT15=
EXTT16=
EXTT17=
EXTT18=
EXTT19=
EXTT20=
EXTT21=
EXTT22=
EXTT23=
EXTT24=
PLAYORDER=
